<svg viewBox="60.43343824247356 51.099867778681855 560.0699755899105 576.993490642799" version="1.1" xmlns:xlink="http://www.w3.org/1999/xlink" xmlns="http://www.w3.org/2000/svg" style="max-height: 500px" width="560.0699755899105" height="576.993490642799">
			
			<g transform="scale(7.323026851098454) translate(10, 10)">
				<defs id="SvgjsDefs6843"/><g fill="#000" transform="matrix(1,0,0,1,0,0)" id="SvgjsG6844"><rect ry="10" rx="10" height="73" width="73" xmlns="http://www.w3.org/2000/svg"/></g><g fill="#ffffff" transform="matrix(0.3529114766019519,0,0,0.3529114766019519,18.973539484529322,18.99455521123854)" id="SvgjsG6845"><path d="M80.644,87.982l16.592-41.483c0.054-0.128,0.088-0.26,0.108-0.394c0.006-0.039,0.007-0.077,0.011-0.116  c0.007-0.087,0.008-0.174,0.002-0.26c-0.003-0.046-0.007-0.091-0.014-0.137c-0.014-0.089-0.036-0.176-0.063-0.262  c-0.012-0.034-0.019-0.069-0.031-0.103c-0.047-0.118-0.106-0.229-0.178-0.335c-0.004-0.006-0.006-0.012-0.01-0.018L67.999,3.358  c-0.01-0.013-0.003-0.026-0.013-0.04L68,3.315V4c0,0-0.033,0-0.037,0c-0.403-1-1.094-1.124-1.752-0.976  c0,0.004-0.004-0.012-0.007-0.012C66.201,3.016,66.194,3,66.194,3H66.19h-0.003h-0.003h-0.004h-0.003c0,0-0.004,0-0.007,0  s-0.003-0.151-0.007-0.151L20.495,15.227c-0.025,0.007-0.046-0.019-0.071-0.011c-0.087,0.028-0.172,0.041-0.253,0.083  c-0.054,0.027-0.102,0.053-0.152,0.085c-0.051,0.033-0.101,0.061-0.147,0.099c-0.044,0.036-0.084,0.073-0.124,0.113  c-0.048,0.048-0.093,0.098-0.136,0.152c-0.03,0.039-0.059,0.076-0.085,0.117c-0.046,0.07-0.084,0.145-0.12,0.223  c-0.011,0.023-0.027,0.042-0.036,0.066L2.911,57.664C2.891,57.715,3,57.768,3,57.82v0.002c0,0.186,0,0.375,0,0.562  c0,0.004,0,0.004,0,0.008c0,0,0,0,0,0.002c0,0,0,0,0,0.004v0.004v0.002c0,0.074-0.002,0.15,0.012,0.223  C3.015,58.631,3,58.631,3,58.633c0,0.004,0,0.004,0,0.008c0,0,0,0,0,0.002c0,0,0,0,0,0.004v0.004c0,0,0,0,0,0.002v0.004  c0,0.191-0.046,0.377,0.06,0.545c0-0.002-0.03,0.004-0.03,0.004c0,0.004-0.03,0.004-0.03,0.004c0,0.002,0,0.002,0,0.002  l-0.045,0.004c0.03,0.047,0.036,0.09,0.068,0.133l29.049,37.359c0.002,0.004,0,0.006,0.002,0.01c0.002,0.002,0,0.004,0.002,0.008  c0.006,0.008,0.014,0.014,0.021,0.021c0.024,0.029,0.052,0.051,0.078,0.078c0.027,0.029,0.053,0.057,0.082,0.082  c0.03,0.027,0.055,0.062,0.086,0.088c0.026,0.02,0.057,0.033,0.084,0.053c0.04,0.027,0.081,0.053,0.123,0.076  c0.005,0.004,0.01,0.008,0.016,0.01c0.087,0.051,0.176,0.09,0.269,0.123c0.042,0.014,0.082,0.031,0.125,0.043  c0.021,0.006,0.041,0.018,0.062,0.021c0.123,0.027,0.249,0.043,0.375,0.043c0.099,0,0.202-0.012,0.304-0.027l45.669-8.303  c0.057-0.01,0.108-0.021,0.163-0.037C79.547,88.992,79.562,89,79.575,89c0.004,0,0.004,0,0.004,0c0.021,0,0.039-0.027,0.06-0.035  c0.041-0.014,0.08-0.034,0.12-0.052c0.021-0.01,0.044-0.019,0.064-0.03c0.017-0.01,0.026-0.015,0.033-0.017  c0.014-0.008,0.023-0.021,0.037-0.028c0.14-0.078,0.269-0.174,0.38-0.285c0.014-0.016,0.024-0.034,0.038-0.048  c0.109-0.119,0.201-0.252,0.271-0.398c0.006-0.01,0.016-0.018,0.021-0.029c0.004-0.008,0.008-0.017,0.011-0.026  c0.002-0.004,0.003-0.006,0.005-0.01C80.627,88.021,80.635,88.002,80.644,87.982z M77.611,84.461L48.805,66.453l32.407-25.202  L77.611,84.461z M46.817,63.709L35.863,23.542l43.818,14.608L46.817,63.709z M84.668,40.542l8.926,5.952l-11.902,29.75  L84.668,40.542z M89.128,39.446L84.53,36.38l-6.129-12.257L89.128,39.446z M79.876,34.645L37.807,20.622L65.854,6.599L79.876,34.645  z M33.268,19.107l-6.485-2.162l23.781-6.487L33.268,19.107z M21.92,18.895l8.67,2.891L10.357,47.798L21.92,18.895z M32.652,24.649  l10.845,39.757L7.351,57.178L32.652,24.649z M43.472,67.857L32.969,92.363L8.462,60.855L43.472,67.857z M46.631,69.09l27.826,17.393  l-38.263,6.959L46.631,69.09z" xmlns="http://www.w3.org/2000/svg"/></g><g fill="#000" transform="matrix(1.756527044671291,0,0,1.756527044671291,92.9648686550323,9.849714747246871)" id="SvgjsG6846"><path d="M5.3 4.640000000000001 c0.53334 0 0.97998 0.04666 1.34 0.14 l-0.2 1.6 c-0.29334 -0.12 -0.63334 -0.18 -1.02 -0.18 c-0.54666 0 -0.94 0.15 -1.18 0.45 s-0.36 0.83 -0.36 1.59 l0 2.28 l2.14 0 l0 1.56 l-2.16 0 l0 7.92 l-1.8 0 l0 -7.92 l-2.04 0 l0 -1.56 l2.04 0 l0 -2.2 c0 -1.2667 0.25666 -2.1966 0.77 -2.79 s1.3367 -0.89 2.47 -0.89 z M9.06 5.800000000000001 c0.36 0 0.67002 0.13002 0.93002 0.39002 s0.39 0.57 0.39 0.93 c0 0.37334 -0.13334 0.68668 -0.4 0.94002 s-0.57332 0.38 -0.91998 0.38 c-0.37334 0 -0.68668 -0.12666 -0.94002 -0.38 s-0.38 -0.56668 -0.38 -0.94002 s0.13334 -0.68668 0.4 -0.94002 s0.57332 -0.38 0.91998 -0.38 z M9.96 10.52 l0 9.48 l-1.8 0 l0 -9.48 l1.8 0 z M17.78 10.28 c1.0667 0 1.9033 0.32 2.51 0.96 s0.91666 1.5 0.93 2.58 l0 6.18 l-1.8 0 l0 -5.66 c0 -0.73334 -0.19 -1.3133 -0.57 -1.74 s-0.91 -0.64 -1.59 -0.64 c-0.84 0 -1.49 0.28 -1.95 0.84 s-0.69 1.3067 -0.69 2.24 l0 4.96 l-1.8 0 l0 -9.48 l1.8 0 l0 1.46 l0.04 0 c0.25334 -0.53334 0.66334 -0.95 1.23 -1.25 s1.1967 -0.45 1.89 -0.45 z M27.740000000000002 10.28 c1.2 0 2.15 0.27328 2.85 0.81994 s1.07 1.3067 1.11 2.28 l0 5.08 c0 0.48 0.02666 0.99334 0.08 1.54 l-1.6 0 c-0.04 -0.42666 -0.06 -0.90666 -0.06 -1.44 l-0.04 0 c-0.41334 0.61334 -0.89 1.0467 -1.43 1.3 s-1.17 0.38 -1.89 0.38 c-0.97334 0 -1.7633 -0.26 -2.37 -0.78 s-0.91 -1.2067 -0.91 -2.06 c0 -1.08 0.45334 -1.8967 1.36 -2.45 s2.1866 -0.83 3.84 -0.83 l1.34 0 l0 -0.34 c0 -0.64 -0.21 -1.1433 -0.63 -1.51 s-0.97 -0.55 -1.65 -0.55 c-0.50666 0 -0.95 0.07666 -1.33 0.23 s-0.83 0.43668 -1.35 0.85002 l-1.08 -1.12 c1.0267 -0.90666 2.28 -1.3733 3.76 -1.4 z M25.28 17.259999999999998 c0 1.0267 0.68002 1.54 2.04 1.54 c0.81334 0 1.4633 -0.24334 1.95 -0.73 s0.73666 -1.19 0.75 -2.11 l0 -0.52 l-1.02 0 c-1.1733 0 -2.0866 0.15 -2.74 0.45 s-0.98 0.75666 -0.98 1.37 z M39.28 10.28 c1.0667 0 1.9033 0.32 2.51 0.96 s0.91666 1.5 0.93 2.58 l0 6.18 l-1.8 0 l0 -5.66 c0 -0.73334 -0.19 -1.3133 -0.57 -1.74 s-0.91 -0.64 -1.59 -0.64 c-0.84 0 -1.49 0.28 -1.95 0.84 s-0.69 1.3067 -0.69 2.24 l0 4.96 l-1.8 0 l0 -9.48 l1.8 0 l0 1.46 l0.04 0 c0.25334 -0.53334 0.66334 -0.95 1.23 -1.25 s1.1967 -0.45 1.89 -0.45 z M49.94 10.3 c1.5067 0 2.72 0.5 3.64 1.5 l-1.36 1.24 c-0.65334 -0.70666 -1.44 -1.06 -2.36 -1.06 c-0.88 0 -1.5933 0.31334 -2.14 0.94 s-0.82 1.4333 -0.82 2.42 c0 0.93334 0.28666 1.7 0.86 2.3 s1.3067 0.90666 2.2 0.92 c0.94666 0 1.7133 -0.35334 2.3 -1.06 l1.28 1.28 c-0.85334 0.97334 -2.0534 1.46 -3.6 1.46 c-1.4533 0 -2.6366 -0.45334 -3.55 -1.36 s-1.3833 -2.1 -1.41 -3.58 c0.01334 -1.5067 0.48334 -2.7134 1.41 -3.62 s2.11 -1.3667 3.55 -1.38 z M56.12 5.800000000000001 c0.36 0 0.67002 0.13002 0.93002 0.39002 s0.39 0.57 0.39 0.93 c0 0.37334 -0.13334 0.68668 -0.4 0.94002 s-0.57332 0.38 -0.91998 0.38 c-0.37334 0 -0.68668 -0.12666 -0.94002 -0.38 s-0.38 -0.56668 -0.38 -0.94002 s0.13334 -0.68668 0.4 -0.94002 s0.57332 -0.38 0.91998 -0.38 z M57.019999999999996 10.52 l0 9.48 l-1.8 0 l0 -9.48 l1.8 0 z M63.67999999999999 10.28 c1.2 0 2.15 0.27328 2.85 0.81994 s1.07 1.3067 1.11 2.28 l0 5.08 c0 0.48 0.02666 0.99334 0.08 1.54 l-1.6 0 c-0.04 -0.42666 -0.06 -0.90666 -0.06 -1.44 l-0.04 0 c-0.41334 0.61334 -0.89 1.0467 -1.43 1.3 s-1.17 0.38 -1.89 0.38 c-0.97334 0 -1.7633 -0.26 -2.37 -0.78 s-0.91 -1.2067 -0.91 -2.06 c0 -1.08 0.45334 -1.8967 1.36 -2.45 s2.1866 -0.83 3.84 -0.83 l1.34 0 l0 -0.34 c0 -0.64 -0.21 -1.1433 -0.63 -1.51 s-0.97 -0.55 -1.65 -0.55 c-0.50666 0 -0.95 0.07666 -1.33 0.23 s-0.83 0.43668 -1.35 0.85002 l-1.08 -1.12 c1.0267 -0.90666 2.28 -1.3733 3.76 -1.4 z M61.22 17.259999999999998 c0 1.0267 0.68002 1.54 2.04 1.54 c0.81334 0 1.4633 -0.24334 1.95 -0.73 s0.73666 -1.19 0.75 -2.11 l0 -0.52 l-1.02 0 c-1.1733 0 -2.0866 0.15 -2.74 0.45 s-0.98 0.75666 -0.98 1.37 z M72.19999999999999 4.880000000000001 l0 15.12 l-1.8 0 l0 -15.12 l1.8 0 z M79.32 14.32 l0 1.68 l-4.92 0 l0 -1.68 l4.92 0 z M86.53999999999998 10.28 c1.4 0 2.5434 0.45998 3.43 1.38 s1.3433 2.12 1.37 3.6 c0 1.48 -0.45334 2.6766 -1.36 3.59 s-2.06 1.3767 -3.46 1.39 c-0.69334 0 -1.34 -0.14666 -1.94 -0.44 s-1.0533 -0.68 -1.36 -1.16 l-0.04 0 l0 7 l-1.8 0 l0 -15.12 l1.8 0 l0 1.36 l0.04 0 c0.36 -0.50666 0.83334 -0.9 1.42 -1.18 s1.22 -0.42 1.9 -0.42 z M83.17999999999998 15.26 c0 0.98666 0.28998 1.7833 0.86998 2.39 s1.33 0.91 2.25 0.91 c0.96 0 1.7167 -0.30334 2.27 -0.91 s0.83668 -1.4033 0.85002 -2.39 c0 -0.98666 -0.28334 -1.78 -0.85 -2.38 s-1.33 -0.90666 -2.29 -0.92 c-0.94666 0 -1.7 0.31 -2.26 0.93 s-0.84 1.41 -0.84 2.37 z M98.17999999999998 10.28 c1.4 0 2.5866 0.48338 3.56 1.45 s1.4667 2.1434 1.48 3.53 c0 1.4 -0.48666 2.5734 -1.46 3.52 s-2.1666 1.4333 -3.58 1.46 c-1.3867 0 -2.5666 -0.48 -3.54 -1.44 s-1.4733 -2.14 -1.5 -3.54 c0 -1.3733 0.48334 -2.54 1.45 -3.5 s2.1634 -1.4533 3.59 -1.48 z M95.05999999999997 15.26 c0 0.97334 0.28664 1.7633 0.85998 2.37 s1.3267 0.91666 2.26 0.93 c0.94666 0 1.7 -0.30334 2.26 -0.91 s0.84666 -1.4033 0.86 -2.39 c0 -0.97334 -0.28 -1.7633 -0.84 -2.37 s-1.3267 -0.91666 -2.3 -0.93 c-0.94666 0 -1.7 0.31334 -2.26 0.94 s-0.84 1.4133 -0.84 2.36 z M110.15999999999998 10.28 c0.33334 0 0.6 0.04 0.8 0.12 l-0.08 1.94 c-0.34666 -0.09334 -0.64666 -0.14 -0.9 -0.14 c-1.7733 0 -2.6734 0.98666 -2.7 2.96 l0 4.84 l-1.8 0 l0 -9.48 l1.8 0 l0 1.46 l0.04 0 c0.24 -0.50666 0.62666 -0.91666 1.16 -1.23 s1.0933 -0.47 1.68 -0.47 z M115.37999999999998 7.859999999999999 l-0.000019531 2.66 l2.58 0 l0 1.56 l-2.58 0 l0 4.56 c0 0.61334 0.08666 1.0867 0.26 1.42 s0.54 0.5 1.1 0.5 c0.53334 0 0.96 -0.09334 1.28 -0.28 l0 1.64 c-0.34666 0.18666 -0.89332 0.29332 -1.64 0.31998 c-0.72 0 -1.2767 -0.11 -1.67 -0.33 s-0.68 -0.52666 -0.86 -0.92 s-0.27 -1.01 -0.27 -1.85 l0 -5.06 l-2.08 0 l0 -1.56 l2.08 0 l0 -2.66 l1.8 0 z M124.21999999999998 4.640000000000001 c0.53334 0 0.97998 0.04666 1.34 0.14 l-0.2 1.6 c-0.29334 -0.12 -0.63334 -0.18 -1.02 -0.18 c-0.54666 0 -0.94 0.15 -1.18 0.45 s-0.36 0.83 -0.36 1.59 l0 2.28 l2.14 0 l0 1.56 l-2.16 0 l0 7.92 l-1.8 0 l0 -7.92 l-2.04 0 l0 -1.56 l2.04 0 l0 -2.2 c0 -1.2667 0.25666 -2.1966 0.77 -2.79 s1.3367 -0.89 2.47 -0.89 z M131.51999999999998 10.28 c1.4 0 2.5866 0.48338 3.56 1.45 s1.4667 2.1434 1.48 3.53 c0 1.4 -0.48666 2.5734 -1.46 3.52 s-2.1666 1.4333 -3.58 1.46 c-1.3867 0 -2.5666 -0.48 -3.54 -1.44 s-1.4733 -2.14 -1.5 -3.54 c0 -1.3733 0.48334 -2.54 1.45 -3.5 s2.1634 -1.4533 3.59 -1.48 z M128.39999999999998 15.26 c0 0.97334 0.28664 1.7633 0.85998 2.37 s1.3267 0.91666 2.26 0.93 c0.94666 0 1.7 -0.30334 2.26 -0.91 s0.84666 -1.4033 0.86 -2.39 c0 -0.97334 -0.28 -1.7633 -0.84 -2.37 s-1.3267 -0.91666 -2.3 -0.93 c-0.94666 0 -1.7 0.31334 -2.26 0.94 s-0.84 1.4133 -0.84 2.36 z M140.76 4.880000000000001 l0 15.12 l-1.8 0 l0 -15.12 l1.8 0 z M144.68 5.800000000000001 c0.36 0 0.67002 0.13002 0.93002 0.39002 s0.39 0.57 0.39 0.93 c0 0.37334 -0.13334 0.68668 -0.4 0.94002 s-0.57332 0.38 -0.91998 0.38 c-0.37334 0 -0.68668 -0.12666 -0.94002 -0.38 s-0.38 -0.56668 -0.38 -0.94002 s0.13334 -0.68668 0.4 -0.94002 s0.57332 -0.38 0.91998 -0.38 z M145.58 10.52 l0 9.48 l-1.8 0 l0 -9.48 l1.8 0 z M153.02 10.28 c1.4 0 2.5866 0.48338 3.56 1.45 s1.4667 2.1434 1.48 3.53 c0 1.4 -0.48666 2.5734 -1.46 3.52 s-2.1666 1.4333 -3.58 1.46 c-1.3867 0 -2.5666 -0.48 -3.54 -1.44 s-1.4733 -2.14 -1.5 -3.54 c0 -1.3733 0.48334 -2.54 1.45 -3.5 s2.1634 -1.4533 3.59 -1.48 z M149.9 15.26 c0 0.97334 0.28664 1.7633 0.85998 2.37 s1.3267 0.91666 2.26 0.93 c0.94666 0 1.7 -0.30334 2.26 -0.91 s0.84666 -1.4033 0.86 -2.39 c0 -0.97334 -0.28 -1.7633 -0.84 -2.37 s-1.3267 -0.91666 -2.3 -0.93 c-0.94666 0 -1.7 0.31334 -2.26 0.94 s-0.84 1.4133 -0.84 2.36 z M161.74 17.48 c0.37334 0 0.68664 0.13342 0.93998 0.40008 s0.38 0.57332 0.38 0.91998 c0 0.38666 -0.13334 0.70332 -0.4 0.94998 s-0.57332 0.37 -0.91998 0.37 s-0.65332 -0.12666 -0.91998 -0.38 s-0.4 -0.56668 -0.4 -0.94002 s0.13334 -0.68668 0.4 -0.94002 s0.57332 -0.38 0.91998 -0.38 z M166.92000000000002 5.800000000000001 c0.36 0 0.67002 0.13002 0.93002 0.39002 s0.39 0.57 0.39 0.93 c0 0.37334 -0.13334 0.68668 -0.4 0.94002 s-0.57332 0.38 -0.91998 0.38 c-0.37334 0 -0.68668 -0.12666 -0.94002 -0.38 s-0.38 -0.56668 -0.38 -0.94002 s0.13334 -0.68668 0.4 -0.94002 s0.57332 -0.38 0.91998 -0.38 z M167.82000000000002 10.52 l0 9.48 l-1.8 0 l0 -9.48 l1.8 0 z M175.26000000000002 10.28 c1.4 0 2.5866 0.48338 3.56 1.45 s1.4667 2.1434 1.48 3.53 c0 1.4 -0.48666 2.5734 -1.46 3.52 s-2.1666 1.4333 -3.58 1.46 c-1.3867 0 -2.5666 -0.48 -3.54 -1.44 s-1.4733 -2.14 -1.5 -3.54 c0 -1.3733 0.48334 -2.54 1.45 -3.5 s2.1634 -1.4533 3.59 -1.48 z M172.14000000000001 15.26 c0 0.97334 0.28664 1.7633 0.85998 2.37 s1.3267 0.91666 2.26 0.93 c0.94666 0 1.7 -0.30334 2.26 -0.91 s0.84666 -1.4033 0.86 -2.39 c0 -0.97334 -0.28 -1.7633 -0.84 -2.37 s-1.3267 -0.91666 -2.3 -0.93 c-0.94666 0 -1.7 0.31334 -2.26 0.94 s-0.84 1.4133 -0.84 2.36 z"/></g>
			</g>
		</svg>